<?xml version="1.0" encoding="UTF-8"?><svg id="b" xmlns="http://www.w3.org/2000/svg" width="359.83" height="221.48" viewBox="0 0 359.83 221.48"><g id="c"><path d="M359.83,41.56c0,99.36-80.55,179.91-179.91,179.91S0,140.93,0,41.56h359.83Z" style="fill:#ffd22f;"/><path d="M39.28,11.88h10.29c1.42,0,2.22.71,2.22,2.22l.48,37.92s.16,3.48,3.56,3.48c3.8-.08,3.8-3.48,3.8-3.48V14.09c0-1.42.79-2.22,2.22-2.22h10.29c1.43,0,2.22.79,2.22,2.22v34.91c0-.16,0,3.25-.16,4.99-.16,1.27.16,14.57-18.52,14.57s-18.13-12.67-18.44-14.57c-.16-1.5-.16-5.3-.16-5.15V14.09c0-1.42.79-2.22,2.22-2.22Z"/><path d="M96.76,48.92c-.55-.08-.87.24-.87.71v15.44c0,1.42-.79,2.22-2.22,2.22h-10.77c-1.43,0-2.22-.79-2.22-2.22V14.09c0-1.42.79-2.22,2.22-2.22h15.75c14.41,0,21.53,6.25,21.53,18.21,0,19.39-19.24,19.16-23.43,18.84ZM96.68,35.23h4.04c2.93,0,5.15-1.9,5.15-5.22,0-2.69-1.5-5.3-5.46-5.3h-3.72c-.48,0-.79.32-.79.79v8.95c0,.47.32.79.79.79Z"/><path d="M133.97,65.07V26.68c0-.47-.32-.79-.79-.79h-7.12c-1.42,0-2.22-.79-2.22-2.22v-9.58c0-1.42.79-2.22,2.22-2.22h31.03c1.42,0,2.22.79,2.22,2.22v9.58c0,1.42-.79,2.22-2.22,2.22h-7.12c-.48,0-.79.32-.79.79v38.39c0,1.42-.79,2.22-2.22,2.22h-10.77c-1.42,0-2.22-.79-2.22-2.22Z"/><path d="M164.84,65.07V14.09c0-1.42.79-2.22,2.22-2.22h10.53c1.42,0,2.22.79,2.22,2.22v50.98c0,1.42-.79,2.22-2.22,2.22h-10.53c-1.43,0-2.22-.79-2.22-2.22Z"/><path d="M188.35,11.88h11.95c1.27,0,2.06.63,2.53,1.74l6.81,16.23c.24.63.87.63,1.11,0l6.81-16.23c.48-1.11,1.27-1.74,2.53-1.74h11.95c1.42,0,2.22.79,2.22,2.22v50.98c0,1.42-.79,2.22-2.22,2.22h-10.13c-1.42,0-2.22-.79-2.22-2.22v-20.74c0-.71-.63-.87-.87-.16l-3.32,8.63c-.48,1.19-1.35,1.74-2.61,1.74h-5.38c-1.27,0-2.14-.55-2.61-1.74l-3.32-8.63c-.24-.71-.87-.55-.87.16v20.74c0,1.42-.79,2.22-2.22,2.22h-10.13c-1.42,0-2.22-.79-2.22-2.22V14.09c0-1.42.79-2.22,2.22-2.22Z"/><path d="M240.6,65.07V14.09c0-1.42.79-2.22,2.22-2.22h31.03c1.42,0,2.22.79,2.22,2.22v9.58c0,1.42-.79,2.22-2.22,2.22h-17.42c-.47,0-.79.32-.79.79v5.07c0,.47.32.79.79.79h11c1.42,0,2.22.79,2.22,2.22v9.58c0,1.42-.79,2.22-2.22,2.22h-11c-.47,0-.79.32-.79.79v5.15c0,.48.32.79.79.79h17.42c1.42,0,2.22.79,2.22,2.22v9.58c0,1.42-.79,2.22-2.22,2.22h-31.03c-1.42,0-2.22-.79-2.22-2.22Z"/><path d="M284.61,11.88h16.54c14.41,0,20.74,6.25,20.74,18.21,0,7.84-3.17,12.43-7.12,15.2-.4.24-.47.63-.32,1.03l8.47,18.37c.71,1.58,0,2.61-1.66,2.61h-12.51c-1.27,0-2.14-.55-2.61-1.74l-6.33-15.91c-.16-.47-.47-.71-.87-.71h-.55c-.47,0-.79.24-.79.71v15.44c0,1.42-.79,2.22-2.22,2.22h-10.77c-1.42,0-2.22-.79-2.22-2.22V14.09c0-1.42.79-2.22,2.22-2.22ZM298.39,35.31h4.04c3.25,0,5.15-1.9,5.15-4.99s-1.5-5.62-5.46-5.62h-3.72c-.47,0-.79.32-.79.79v9.02c0,.47.32.79.79.79Z"/></g></svg>